<?xml version="1.0" encoding="UTF-8"?><svg id="Layer_2" xmlns="http://www.w3.org/2000/svg" viewBox="0 0 62.1 80.4"><defs><style>.cls-1{fill:#6e6e6e;}</style></defs><g id="Layer_1-2"><g><path d="M32.7,78.9v-18.6H1.5v-14.21L28.05,1.5h24.25V43.8h8.3v16.5h-8.3v18.6h-19.6Zm0-35.1v-9.4c0-2.76,.17-6.36,.35-9.77-1.13,2.4-2.18,4.58-3.21,6.64l-7.24,12.53h10.1Z"/><path class="cls-1" d="M50.8,3V45.3h8.3v13.5h-8.3v18.6h-16.6v-18.6H3v-12.3L28.9,3h21.9m-15.9,14.9h-.4c-1.9,4.2-3.9,8.5-6,12.7l-8.5,14.7h14.2v-10.9c0-4.7,.5-11.8,.7-16.5M53.8,0H27.2l-.87,1.47L.42,44.97l-.42,.71v16.13H31.2v18.6h22.6v-18.6h8.3v-19.5h-8.3V0h0ZM25.2,42.3l5.9-10.2,.05-.08,.04-.08,.06-.11c-.02,.91-.04,1.77-.04,2.57v7.9h-6Z"/></g></g></svg>