<?xml version="1.0" encoding="UTF-8"?><svg id="Layer_2" xmlns="http://www.w3.org/2000/svg" viewBox="0 0 58.41 83.2"><defs><style>.cls-1{fill:#6e6e6e;}</style></defs><g id="Layer_1-2"><g><path d="M30.8,81.7c-13.52,0-29.3-10.35-29.3-39.5S18.25,1.5,32.6,1.5c11.25,0,18.6,5.08,22.77,9.35l.98,1-11.44,12.78-1.12-1.21c-2.11-2.29-6.33-4.72-10-4.72-7.2,0-11.46,5.46-12.69,16.25,3.92-3.2,8.82-4.85,12.39-4.85,14.59,0,23.3,9.31,23.3,24.9s-10.94,26.7-26,26.7Zm-9.65-30.56c.87,6.63,3.19,14.26,9.25,14.26,4.51,0,7.1-3.79,7.1-10.4s-2.42-9.4-7.4-9.4c-3.55,0-6.56,1.87-8.95,5.55Z"/><path class="cls-1" d="M32.6,3c9.8,0,17,4.1,21.7,8.9l-9.4,10.5c-2.4-2.6-7-5.2-11.1-5.2-7.7,0-13.8,5.5-14.5,21.7,3.7-4.7,10-7.3,14.2-7.3,12.4,0,21.8,7.2,21.8,23.4s-11.2,25.2-24.5,25.2c-14,0-27.8-10.9-27.8-38S17.2,3,32.6,3m-2.2,63.9c4.7,0,8.6-3.5,8.6-11.9s-4-10.9-8.9-10.9c-3.7,0-7.5,1.8-10.5,6.7,1.5,12.4,6.1,16.1,10.8,16.1M32.6,0C23.66,0,15.54,3.75,9.74,10.57,3.37,18.06,0,29,0,42.2s3.15,23.8,9.37,31.11c5.43,6.38,13.04,9.89,21.44,9.89,7.46,0,14.32-2.67,19.33-7.52,5.35-5.18,8.18-12.33,8.18-20.68s-2.41-15.27-7.15-19.92c-4.32-4.24-10.43-6.48-17.65-6.48-2.99,0-6.85,1.07-10.39,3.15,2.3-11.55,8.44-11.55,10.69-11.55,3.12,0,6.97,2.15,8.9,4.24l2.24,2.42,2.2-2.46,9.4-10.5,1.87-2.09-1.97-2.01C52.07,5.33,44.38,0,32.6,0h0Zm-9.88,51.51c2.04-2.93,4.52-4.41,7.38-4.41s5.9,.9,5.9,7.9c0,3.32-.73,8.9-5.6,8.9s-6.84-6.5-7.68-12.39h0Z"/></g></g></svg>