<?xml version="1.0" encoding="UTF-8"?><svg id="Layer_2" xmlns="http://www.w3.org/2000/svg" viewBox="0 0 53 80.4"><defs><style>.cls-1{fill:#6e6e6e;}</style></defs><g id="Layer_1-2"><g><path d="M1.5,78.9v-17.4h15.8V22.2H3.6V8.46l1.22-.23c7.48-1.4,12.66-3.29,17.89-6.5l.36-.22h15.03V61.5h13.4v17.4H1.5Z"/><path class="cls-1" d="M36.6,3V63h13.4v14.4H3v-14.4h15.8V20.7H5.1V9.7c8-1.5,13.2-3.5,18.4-6.7h13.1m3-3H22.65l-.72,.45C16.8,3.6,11.93,5.37,4.55,6.75l-2.45,.46V23.7H15.8V60H0v20.4H53v-20.4h-13.4V0h0Z"/></g></g></svg>