<?xml version="1.0" encoding="UTF-8"?><svg id="Layer_2" xmlns="http://www.w3.org/2000/svg" viewBox="0 0 59.85 81.8"><defs><style>.cls-1{fill:#6e6e6e;}</style></defs><g id="Layer_1-2"><g><path d="M29.94,80.3c-10.71,0-19.81-3.61-27.05-10.73l-.92-.9,9.86-13.64,1.24,1.18c4.66,4.44,9.46,6.69,14.27,6.69s10.2-1.75,10.2-10.1c0-6.26-3.51-10-9.4-10-3.62,0-5.35,.6-9.7,3.37l-.82,.52-9.33-6.1L10.32,1.5H55.05V19.3H28.42l-.78,8.91c1.92-.57,3.79-.81,6-.81,11.94,0,24.7,6.57,24.7,25s-14.29,27.9-28.4,27.9Z"/><path class="cls-1" d="M53.55,3v14.8H27.04l-1.1,12.6c2.7-1.1,4.9-1.5,7.7-1.5,12.6,0,23.2,7.4,23.2,23.5s-12.6,26.4-26.9,26.4c-11.9,0-20.1-4.5-26-10.3l8.1-11.2c4.2,4,9.4,7.1,15.3,7.1,7.2,0,11.7-3.9,11.7-11.6s-4.5-11.5-10.9-11.5c-4.1,0-6.1,.8-10.5,3.6l-7.8-5.1L11.74,3H53.55m3-3H8.89l-.15,2.85-1.9,36.8-.09,1.72,1.44,.94,7.8,5.1,1.62,1.06,1.63-1.04c4.14-2.63,5.55-3.13,8.89-3.13,5.09,0,7.9,3.02,7.9,8.5,0,5.79-2.85,8.6-8.7,8.6-4.41,0-8.86-2.11-13.23-6.27l-2.49-2.37-2.01,2.78L1.51,66.75l-1.51,2.09,1.84,1.81c7.53,7.41,16.99,11.16,28.11,11.16,14.86,0,29.9-10.1,29.9-29.4,0-16.1-10.28-26.5-26.2-26.5-1.56,0-2.96,.11-4.33,.37l.48-5.47h26.75V0h0Z"/></g></g></svg>