<?xml version="1.0" encoding="UTF-8"?><svg id="Layer_2" xmlns="http://www.w3.org/2000/svg" viewBox="0 0 59.7 81.8"><defs><style>.cls-1{fill:#6e6e6e;}</style></defs><g id="Layer_1-2"><g><path d="M3.6,80.3v-12.36l.49-.45c18.37-16.69,30.61-29.9,30.61-40.09,0-5.8-2.91-9-8.2-9-4.68,0-8.44,3.4-11.5,6.72l-1.05,1.14L2.1,14.53l1.01-1.07C11.27,4.86,18.5,1.5,28.9,1.5c15.49,0,25.9,10.01,25.9,24.9,0,10.32-6.51,22.26-19.89,36.42,2.78-.29,5.8-.51,8.09-.51h15.2v18H3.6Z"/><path class="cls-1" d="M28.9,3c14.4,0,24.4,9.2,24.4,23.4,0,12.8-11,26.9-22.4,38.4,3.7-.5,8.8-1,12.1-1h13.7v15H5.1v-10.2c18.6-16.9,31.1-30.4,31.1-41.2,0-6.8-3.8-10.5-9.7-10.5-5.1,0-9.1,3.4-12.6,7.2L4.2,14.5C11.5,6.8,18.3,3,28.9,3m0-3C18.18,0,10.39,3.6,2.02,12.44L0,14.57l2.09,2.07,9.7,9.6,2.21,2.19,2.11-2.29c2.84-3.08,6.29-6.23,10.39-6.23,4.45,0,6.7,2.52,6.7,7.5,0,10.21-14.48,24.77-30.12,38.98l-.98,.89v14.53H59.7v-21h-16.7c-1.29,0-2.79,.07-4.36,.18,11.87-13.22,17.66-24.58,17.66-34.58,0-7.77-2.68-14.41-7.74-19.2C43.59,2.49,36.79,0,28.9,0h0Z"/></g></g></svg>