<?xml version="1.0" encoding="UTF-8"?><svg id="Layer_2" xmlns="http://www.w3.org/2000/svg" viewBox="0 0 59.83 83.2"><defs><style>.cls-1{fill:#6e6e6e;}</style></defs><g id="Layer_1-2"><g><path d="M29.33,81.7c-11.3,0-20.51-3.78-26.64-10.92l-.77-.9,9.91-13.54,1.24,1.18c4.71,4.5,9.58,6.78,14.46,6.78,3.7,0,9.9-.91,9.9-7,0-4.58-1.34-8.7-17.5-8.7h-1.5v-15.5h1.5c13.47,0,15.2-4.44,15.2-8.3,0-4.25-2.36-6.4-7-6.4s-8.16,2.23-12.32,5.83l-1.16,1.01L3.72,12.01l1.14-.96C12.51,4.62,20.38,1.5,28.93,1.5c16.91,0,27,8.22,27,22,0,7.19-3.59,12.96-10.18,16.5,8.04,3.41,12.58,10.01,12.58,18.5,0,13.66-11.93,23.2-29,23.2Z"/><path class="cls-1" d="M28.93,3c15.4,0,25.5,7.2,25.5,20.5,0,7.4-4,13.2-12,16.4v.5c8.3,2.5,14.4,8.5,14.4,18.1,0,13.9-12.7,21.7-27.5,21.7-11.8,0-20.1-4.1-25.5-10.4l8.2-11.2c4.5,4.3,9.7,7.2,15.5,7.2,6.9,0,11.4-2.9,11.4-8.5,0-6.4-3.4-10.2-19-10.2v-12.5c12.7,0,16.7-3.9,16.7-9.8,0-5.1-3-7.9-8.5-7.9-5,0-8.8,2.3-13.3,6.2L5.83,12.2C12.73,6.4,20.13,3,28.93,3m0-3C20.01,0,11.82,3.24,3.9,9.9l-2.28,1.91,1.89,2.29,9,10.9,1.96,2.37,2.32-2.01c4.6-3.99,7.67-5.47,11.34-5.47,4.85,0,5.5,2.48,5.5,4.9,0,2.21,0,6.8-13.7,6.8h-3v18.5h3c16,0,16,3.99,16,7.2,0,4.55-4.57,5.5-8.4,5.5-4.49,0-9.01-2.14-13.43-6.37l-2.47-2.36-2.02,2.76L1.4,68.03l-1.4,1.92,1.55,1.81c6.42,7.49,16.03,11.45,27.78,11.45,17.96,0,30.5-10.16,30.5-24.7,0-8.2-3.92-14.76-10.95-18.65,5.56-3.86,8.55-9.5,8.55-16.35C57.43,9.01,46.51,0,28.93,0h0Z"/></g></g></svg>